<?xml version="1.0" encoding="utf-8"?>
<?xml-stylesheet type="text/xsl" href="rss1.xsl"?>
<rss version="2.0" xmlns:atom="http://www.w3.org/2005/Atom" xmlns:content="http://purl.org/rss/1.0/modules/content/" xmlns:dc="http://purl.org/dc/elements/1.1/" xmlns:media="http://search.yahoo.com/mrss/">
<channel>
 <title>Getty</title>
 <link>http://www.gettyimg.com/</link>
 <atom:link href="http://www.gettyimg.com/" rel="self" type="application/rss+xml" />

 
                <item>
                <title><![CDATA[【Albums (lossy)】iTunes Plus - Nicki Minaj – Pink Friday 2 (Gag City PLUTO Edition) [iTunes Plus AAC M4A]]]></title>
                <link><![CDATA[https://sharemania.us/threads/nicki-minaj-%E2%80%93-pink-friday-2-gag-city-pluto-edition-itunes-plus-aac-m4a.248448/]]></link>
                <description><![CDATA[<article>
<blockquote class="messageText SelectQuoteContainer ugc baseHtml">
<div style="text-align: center"><span style="font-size: 15px"><b><img src="https://is1-ssl.mzstatic.com/image/thumb/Music116/v4/7e/c4/27/7ec427f3-fdb2-4c54-4fd6-93ab03e23657/23UM1IM66574.rgb.jpg/316x316bb.webp" class="bbCodeImage LbImage" alt="[​IMG]" data-url="https://is1-ssl.mzstatic.com/image/thumb/Music116/v4/7e/c4/27/7ec427f3-fdb2-4c54-4fd6-93ab03e23657/23UM1IM66574.rgb.jpg/316x316bb.webp" style=""></b><br>
<b>Nicki Minaj – Pink Friday 2 (Gag City PLUTO Edition)</b></span><br>
<br>
<b>Year:</b> 2023-12-08<br>
<b>Genre:</b> Hip-Hop/Rap<br>
<b>Format:</b> iTunes Plus AAC M4A<br>
<b>Audio File Source</b>: iTunes Store<br>
<br>
<span style="font-size: 12px"><b>Tracklist</b></span><br>
1. Are You Gone Already <i>(04:30)</i><br>
2. Barbie Dangerous <i>(02:12)</i><br>
3. FTCU <i>(02:52)</i><br>
4. Beep Beep <i>(01:35)</i><br>
5. Fallin 4 U <i>(03:50)</i><br>
6. Let Me Calm Down (feat. J. Cole) <i>(04:04)</i><br>
7. RNB (feat. Lil Wayne &amp; Tate Kobang) <i>(03:04)</i><br>
8. Pink Birthday <i>(02:08)</i><br>
9. Needle (feat. Drake) <i>(03:55)</i><br>
10. Cowgirl (feat. Lourdiz) <i>(03:36)</i><br>
11. Everybody (feat. Lil Uzi Vert) <i>(03:00)</i><br>
12. Big Difference <i>(03:11)</i><br>
13. Red Ruby Da Sleeze <i>(03:34)</i><br>
14. Forward From Trini (feat. Skillibeng &amp; Skeng) <i>(02:33)</i><br>
15. Pink Friday Girls <i>(02:46)</i><br>
16. Super Freaky Girl <i>(02:50)</i><br>
17. Bahm Bahm <i>(02:21)</i><br>
18. My Life <i>(02:44)</i><br>
19. Nicki Hendrix (feat. Future) <i>(04:24)</i><br>
20. Blessings (feat. Tasha Cobbs Leonard) <i>(03:34)</i><br>
21. Last Time I Saw You <i>(03:36)</i><br>
22. Just The Memories <i>(03:55)</i><br>
23. Beep Beep (feat. 50 Cent) <i>(02:27)</i><br>
24. Love Me Enough (feat. Monica &amp; Keyshia Cole) <i>(03:50)</i><br>
25. Press Play (feat. Future) <i>(03:21)</i><br>
<br>
<b>Total length:</b> 01:19:52<br>
<br>
More information: <a href="https://music.apple.com/tr/album/pink-friday-2-gag-city-pluto-edition/1725588426" target="_blank" class="externalLink" rel="nofollow">Apple Music</a><br>
<div class="bbCodeBlock bbCodeVfcHH HiddenContent">
<div class="attribution type">Hidden Content:</div>
<blockquote>You must reply before you can see the hidden data contained here.</blockquote>
</div></div>
<div class="messageTextEndMarker">&nbsp;</div>
</blockquote>
</article>]]></description>
                <author><![CDATA[VEENX]]></author>
                </item>

                
                <item>
                <title><![CDATA[【Singles (lossy)】Dolby Atmos - vantablack - Valkyria's Colorful Ayahuasca| 2024 | E-AC3-JOC (Dolby Atmos) | 16-Bit/48kHz | 5.1 | 768 kb/s]]></title>
                <link><![CDATA[https://sharemania.us/threads/vantablack-valkyrias-colorful-ayahuasca-2024-e-ac3-joc-dolby-atmos-16-bit-48khz-5-1-768-kb-s.248450/]]></link>
                <description><![CDATA[<article>
<blockquote class="messageText SelectQuoteContainer ugc baseHtml">
<div style="text-align: center"><img src="https://i.imgur.com/Be8azS1.png" class="bbCodeImage LbImage" alt="[​IMG]" data-url="https://i.imgur.com/Be8azS1.png" style=""> <br>
<b><span style="font-size: 26px"><span style="color: rgb(255, 0, 255)">vantablack</span> - <span style="color: #ff0080">Valkyria's Colorful Ayahuasca</span></span><br>
<span style="font-size: 22px">*2024*</span><br>
Release date: </b>2024-01-23<br>
<b>Genre: </b>Psytrance, Electronic, Rave, Mantra, Cinematic, Goa, Epic<br>
<b>Format: </b>.mp4 | <i>E-AC3 JOC (Dolby Atmos) - 768 kb/s | 5.1</i><br>
<b>Source:</b> <i><span style="color: rgb(0, 0, 255)">Own original encode of master ADM from DME (Directly)</span></i><br>
<span style="color: rgb(0, 0, 0)"><b>Duration total: [08:00]</b><br>
<b>
<div class="ToggleTriggerAnchor bbCodeSpoilerContainer">
<button type="button" class="button bbCodeSpoilerButton ToggleTrigger Tooltip JsOnly" data-target="> .SpoilerTarget"><span>Spoiler: <span class="SpoilerTitle">MediaInfo</span></span></button>
<div class="SpoilerTarget bbCodeSpoilerText">Format : MPEG-4<br>
Format profile : Base Media / Version 2<br>
Codec ID : mp42 (mp42/dby1)<br>
File size : 44.0 MiB<br>
Duration : 8 min 0 s<br>
Overall bit rate mode : Constant<br>
Overall bit rate : 769 kb/s<br>
Encoded date : UTC 2024-01-23 06:39:57<br>
Tagged date : UTC 2024-01-23 06:39:57<br>
<br>
Audio<br>
ID : 1<br>
Format : E-AC-3 JOC<br>
Format/Info : Enhanced AC-3 with Joint Object Coding<br>
Commercial name : Dolby Digital Plus with Dolby Atmos<br>
Codec ID : ec-3<br>
Duration : 8 min 0 s<br>
Bit rate mode : Constant<br>
Bit rate : 768 kb/s<br>
Channel(s) : 6 channels<br>
Channel layout : L R C LFE Ls Rs<br>
Sampling rate : 48.0 kHz<br>
Frame rate : 31.250 FPS (1536 SPF)<br>
Compression mode : Lossy<br>
Stream size : 43.9 MiB (100%)<br>
Service kind : Complete Main<br>
Default : Yes<br>
Alternate group : 2<br>
Encoded date : UTC 2024-01-23 06:39:57<br>
Tagged date : UTC 2024-01-23 06:39:57<br>
Complexity index : 16<br>
Number of dynamic objects : 15<br>
Bed channel count : 1 channel<br>
Bed channel configuration : LFE</div>
</div></b><br>
<i>Link:<br>
<div class="bbCodeBlock bbCodeVfcHH HiddenContent">
<div class="attribution type">Hidden Content:</div>
<blockquote>You must reply before you can see the hidden data contained here.</blockquote>
</div>.rar password:<br>
<div class="bbCodeBlock bbCodeVfcHH HiddenContent">
<div class="attribution type">Hidden Content:</div>
<blockquote>You must reply before you can see the hidden data contained here.</blockquote>
</div><div style="text-align: center"><i><i><i><i><b><span style="font-size: 26px"><i><span style="color: rgb(255, 0, 0)"><span style="text-decoration: underline">If you want another sound formats of this single - just send PM!</span></span></i></span></b></i></i></i></i>​</div><br>
<div style="text-align: center"><i><i><i><i><span style="color: rgb(166, 77, 255)"><span style="font-size: 26px">Also leave feedback if you want.</span></span></i></i></i></i>​</div><br>
<div style="text-align: center"><i><i><i><i><i><span style="font-size: 26px"><i><span style="color: rgb(255, 0, 128)">Next uploads soon...</span></i></span></i></i></i></i></i>​</div></i></span>​</div>
<div class="messageTextEndMarker">&nbsp;</div>
</blockquote>
</article>]]></description>
                <author><![CDATA[vantablack]]></author>
                </item>

                
                <item>
                <title><![CDATA[【Singles (lossy)】Dolby Atmos - vantablack - Galaxy Protector | 2024 | E-AC3-JOC (Dolby Atmos) | 16-Bit/48kHz | 5.1 | 768 kb/s]]></title>
                <link><![CDATA[https://sharemania.us/threads/vantablack-galaxy-protector-2024-e-ac3-joc-dolby-atmos-16-bit-48khz-5-1-768-kb-s.248449/]]></link>
                <description><![CDATA[<article>
<blockquote class="messageText SelectQuoteContainer ugc baseHtml">
<div style="text-align: center"><b><span style="font-size: 26px"><span style="color: rgb(255, 0, 255)"><img src="https://i.imgur.com/xlHcVBy.png" class="bbCodeImage LbImage" alt="[​IMG]" data-url="https://i.imgur.com/xlHcVBy.png" style=""> <br>
vantablack</span> - <span style="color: #5900b3">Galaxy Protector</span></span><br>
<span style="font-size: 22px">*2024*</span><br>
Release date: </b>2024-01-25<br>
<b>Genre: </b>Psytrance, Electronic, Rave, Mantra, Cinematic, Goa, Epic<br>
<b>Format: </b>.mp4 | <i>E-AC3 JOC (Dolby Atmos) - 768 kb/s | 5.1</i><br>
<b>Source:</b> <i><span style="color: rgb(0, 0, 255)">Own original encode of master ADM from DME (Directly)</span></i><br>
<b><span style="color: #000000">Duration total: [07:44]</span></b><br>
<div class="ToggleTriggerAnchor bbCodeSpoilerContainer">
<button type="button" class="button bbCodeSpoilerButton ToggleTrigger Tooltip JsOnly" data-target="> .SpoilerTarget"><span>Spoiler: <span class="SpoilerTitle">MediaInfo</span></span></button>
<div class="SpoilerTarget bbCodeSpoilerText">Format : MPEG-4<br>
Format profile : Base Media / Version 2<br>
Codec ID : mp42 (mp42/dby1)<br>
File size : 42.5 MiB<br>
Duration : 7 min 44 s<br>
Overall bit rate mode : Constant<br>
Overall bit rate : 769 kb/s<br>
Encoded date : UTC 2024-01-25 07:01:34<br>
Tagged date : UTC 2024-01-25 07:01:34<br>
<br>
Audio<br>
ID : 1<br>
Format : E-AC-3 JOC<br>
Format/Info : Enhanced AC-3 with Joint Object Coding<br>
Commercial name : Dolby Digital Plus with Dolby Atmos<br>
Codec ID : ec-3<br>
Duration : 7 min 44 s<br>
Bit rate mode : Constant<br>
Bit rate : 768 kb/s<br>
Channel(s) : 6 channels<br>
Channel layout : L R C LFE Ls Rs<br>
Sampling rate : 48.0 kHz<br>
Frame rate : 31.250 FPS (1536 SPF)<br>
Compression mode : Lossy<br>
Stream size : 42.5 MiB (100%)<br>
Service kind : Complete Main<br>
Default : Yes<br>
Alternate group : 2<br>
Encoded date : UTC 2024-01-25 07:01:34<br>
Tagged date : UTC 2024-01-25 07:01:34<br>
Complexity index : 16<br>
Number of dynamic objects : 15<br>
Bed channel count : 1 channel<br>
Bed channel configuration : LFE</div>
</div></div><i><div style="text-align: center"><i>Link:</i>​</div></i><br>
<div style="text-align: center">
<div class="bbCodeBlock bbCodeVfcHH HiddenContent">
<div class="attribution type">Hidden Content:</div>
<blockquote>You must reply before you can see the hidden data contained here.</blockquote>
</div><i>.rar password:<br>
<div class="bbCodeBlock bbCodeVfcHH HiddenContent">
<div class="attribution type">Hidden Content:</div>
<blockquote>You must reply before you can see the hidden data contained here.</blockquote>
</div><div style="text-align: center"><i><i><i><b><span style="font-size: 26px"><i><span style="color: rgb(255, 0, 0)"><span style="text-decoration: underline">If you want another sound formats of this single - just send PM!</span></span></i></span></b><br>
<span style="color: rgb(166, 77, 255)"><span style="font-size: 26px">Also leave feedback if you want.</span></span><br>
<i><span style="font-size: 26px"><i><span style="color: rgb(255, 0, 128)">Next uploads soon...</span></i></span></i></i></i></i>​</div></i>​</div>
<div class="messageTextEndMarker">&nbsp;</div>
</blockquote>
</article>]]></description>
                <author><![CDATA[vantablack]]></author>
                </item>

                </channel></rss>